STARTFONT 2.1
COMMENT $XConsortium: 6x10.bdf,v 1.7 94/04/10 20:47:50 gildea Exp $
COMMENT Upper half by gildea April 1994
FONT -Misc-Fixed-Medium-R-Normal--10-100-75-75-C-60-windows-1251
SIZE 10 75 75
FONTBOUNDINGBOX 6 10 0 -2
STARTPROPERTIES 23
FONTNAME_REGISTRY ""
FOUNDRY "Misc"
FAMILY_NAME "Fixed"
WEIGHT_NAME "Medium"
SLANT "R"
SETWIDTH_NAME "Normal"
ADD_STYLE_NAME ""
PIXEL_SIZE 10
POINT_SIZE 100
RESOLUTION_X 75
RESOLUTION_Y 75
SPACING "C"
AVERAGE_WIDTH 60
CHARSET_REGISTRY "windows"
CHARSET_ENCODING "1251"
FONT_ASCENT 8
FONT_DESCENT 2
DEFAULT_CHAR 0
COPYRIGHT "Public domain terminal emulator font.  Share and enjoy."
COPYRIGHT2 "Cyrillic, Euro and special glyphs copyright 2000 Dmitry Yu. Bolkhovityanov, bolkhov@inp.nsk.su"
SOURCEDATE "Tue Aug  1 19:57:52 2000"
PKGVERSION "1.1"
ASSEMBLER "cvtbdf.pl (Linux)"
ENDPROPERTIES
CHARS 265
STARTCHAR null
ENCODING 0
SWIDTH 666 0
DWIDTH 6 0
BBX 6 10 0 -2
BITMAP
00
78
78
78
78
78
78
78
00
00
ENDCHAR
STARTCHAR ctrlA
ENCODING 1
SWIDTH 666 0
DWIDTH 6 0
BBX 6 10 0 -2
BITMAP
00
10
38
38
7C
38
38
10
00
00
ENDCHAR
STARTCHAR ctrlB
ENCODING 2
SWIDTH 666 0
DWIDTH 6 0
BBX 6 10 0 -2
BITMAP
00
54
28
54
28
54
28
54
00
00
ENDCHAR
STARTCHAR ctrlC
ENCODING 3
SWIDTH 666 0
DWIDTH 6 0
BBX 6 10 0 -2
BITMAP
00
48
48
78
48
48
3C
08
08
08
ENDCHAR
STARTCHAR ctrlD
ENCODING 4
SWIDTH 666 0
DWIDTH 6 0
BBX 6 10 0 -2
BITMAP
00
70
40
60
40
5C
10
18
10
10
ENDCHAR
STARTCHAR ctrlE
ENCODING 5
SWIDTH 666 0
DWIDTH 6 0
BBX 6 10 0 -2
BITMAP
00
38
40
40
38
38
24
38
24
24
ENDCHAR
STARTCHAR ctrlF
ENCODING 6
SWIDTH 666 0
DWIDTH 6 0
BBX 6 10 0 -2
BITMAP
00
40
40
40
78
3C
20
38
20
20
ENDCHAR
STARTCHAR ctrlG
ENCODING 7
SWIDTH 666 0
DWIDTH 6 0
BBX 6 10 0 -2
BITMAP
00
10
28
10
00
00
00
00
00
00
ENDCHAR
STARTCHAR ctrlH
ENCODING 8
SWIDTH 666 0
DWIDTH 6 0
BBX 6 10 0 -2
BITMAP
00
00
10
10
7C
10
10
7C
00
00
ENDCHAR
STARTCHAR ctrlI
ENCODING 9
SWIDTH 666 0
DWIDTH 6 0
BBX 6 10 0 -2
BITMAP
00
48
68
68
58
48
20
20
20
3C
ENDCHAR
STARTCHAR ctrlJ
ENCODING 10
SWIDTH 666 0
DWIDTH 6 0
BBX 6 10 0 -2
BITMAP
00
48
48
30
20
3C
08
08
08
08
ENDCHAR
STARTCHAR ldcornsqlr
ENCODING 11
SWIDTH 666 0
DWIDTH 6 0
BBX 6 10 0 -2
BITMAP
10
10
10
10
F0
00
00
00
00
00
ENDCHAR
STARTCHAR ldcornsqur
ENCODING 12
SWIDTH 666 0
DWIDTH 6 0
BBX 6 10 0 -2
BITMAP
00
00
00
00
F0
10
10
10
10
10
ENDCHAR
STARTCHAR ldcornsqul
ENCODING 13
SWIDTH 666 0
DWIDTH 6 0
BBX 6 10 0 -2
BITMAP
00
00
00
00
1C
10
10
10
10
10
ENDCHAR
STARTCHAR ldcornsqll
ENCODING 14
SWIDTH 666 0
DWIDTH 6 0
BBX 6 10 0 -2
BITMAP
10
10
10
10
1C
00
00
00
00
00
ENDCHAR
STARTCHAR ldcross
ENCODING 15
SWIDTH 666 0
DWIDTH 6 0
BBX 6 10 0 -2
BITMAP
10
10
10
10
FC
10
10
10
10
10
ENDCHAR
STARTCHAR ctrlP
ENCODING 16
SWIDTH 666 0
DWIDTH 6 0
BBX 6 10 0 -2
BITMAP
FC
00
00
00
00
00
00
00
00
00
ENDCHAR
STARTCHAR ctrlQ
ENCODING 17
SWIDTH 666 0
DWIDTH 6 0
BBX 6 10 0 -2
BITMAP
00
00
FC
00
00
00
00
00
00
00
ENDCHAR
STARTCHAR ldhorizontal
ENCODING 18
SWIDTH 666 0
DWIDTH 6 0
BBX 6 10 0 -2
BITMAP
00
00
00
00
FC
00
00
00
00
00
ENDCHAR
STARTCHAR ctrlS
ENCODING 19
SWIDTH 666 0
DWIDTH 6 0
BBX 6 10 0 -2
BITMAP
00
00
00
00
00
00
FC
00
00
00
ENDCHAR
STARTCHAR ctrlT
ENCODING 20
SWIDTH 666 0
DWIDTH 6 0
BBX 6 10 0 -2
BITMAP
00
00
00
00
00
00
00
00
FC
00
ENDCHAR
STARTCHAR ldteelft
ENCODING 21
SWIDTH 666 0
DWIDTH 6 0
BBX 6 10 0 -2
BITMAP
10
10
10
10
1C
10
10
10
10
10
ENDCHAR
STARTCHAR ldteert
ENCODING 22
SWIDTH 666 0
DWIDTH 6 0
BBX 6 10 0 -2
BITMAP
10
10
10
10
F0
10
10
10
10
10
ENDCHAR
STARTCHAR ldteebt
ENCODING 23
SWIDTH 666 0
DWIDTH 6 0
BBX 6 10 0 -2
BITMAP
10
10
10
10
FC
00
00
00
00
00
ENDCHAR
STARTCHAR ldteetp
ENCODING 24
SWIDTH 666 0
DWIDTH 6 0
BBX 6 10 0 -2
BITMAP
00
00
00
00
FC
10
10
10
10
10
ENDCHAR
STARTCHAR ldvertical
ENCODING 25
SWIDTH 666 0
DWIDTH 6 0
BBX 6 10 0 -2
BITMAP
10
10
10
10
10
10
10
10
10
10
ENDCHAR
STARTCHAR ctrlZ
ENCODING 26
SWIDTH 666 0
DWIDTH 6 0
BBX 6 10 0 -2
BITMAP
00
04
08
20
40
20
08
04
7C
00
ENDCHAR
STARTCHAR ctrlBRL
ENCODING 27
SWIDTH 666 0
DWIDTH 6 0
BBX 6 10 0 -2
BITMAP
00
40
20
08
04
08
20
40
7C
00
ENDCHAR
STARTCHAR ctrlBSLASH
ENCODING 28
SWIDTH 666 0
DWIDTH 6 0
BBX 6 10 0 -2
BITMAP
00
00
00
7C
28
28
28
28
00
00
ENDCHAR
STARTCHAR ctrlBRR
ENCODING 29
SWIDTH 666 0
DWIDTH 6 0
BBX 6 10 0 -2
BITMAP
00
04
08
7C
10
7C
20
40
00
00
ENDCHAR
STARTCHAR ctrlCARET
ENCODING 30
SWIDTH 666 0
DWIDTH 6 0
BBX 6 10 0 -2
BITMAP
00
18
24
20
70
20
24
58
00
00
ENDCHAR
STARTCHAR ctrlUND
ENCODING 31
SWIDTH 666 0
DWIDTH 6 0
BBX 6 10 0 -2
BITMAP
00
00
00
00
10
00
00
00
00
00
ENDCHAR
STARTCHAR space
ENCODING 32
SWIDTH 666 0
DWIDTH 6 0
BBX 6 10 0 -2
BITMAP
00
00
00
00
00
00
00
00
00
00
ENDCHAR
STARTCHAR exclam
ENCODING 33
SWIDTH 666 0
DWIDTH 6 0
BBX 6 10 0 -2
BITMAP
00
10
10
10
10
10
00
10
00
00
ENDCHAR
STARTCHAR quotedbl
ENCODING 34
SWIDTH 666 0
DWIDTH 6 0
BBX 6 10 0 -2
BITMAP
00
28
28
28
00
00
00
00
00
00
ENDCHAR
STARTCHAR numbersign
ENCODING 35
SWIDTH 666 0
DWIDTH 6 0
BBX 6 10 0 -2
BITMAP
00
28
28
7C
28
7C
28
28
00
00
ENDCHAR
STARTCHAR dollar
ENCODING 36
SWIDTH 666 0
DWIDTH 6 0
BBX 6 10 0 -2
BITMAP
00
10
38
50
38
14
38
10
00
00
ENDCHAR
STARTCHAR percent
ENCODING 37
SWIDTH 666 0
DWIDTH 6 0
BBX 6 10 0 -2
BITMAP
00
24
54
28
10
28
54
48
00
00
ENDCHAR
STARTCHAR ampersand
ENCODING 38
SWIDTH 666 0
DWIDTH 6 0
BBX 6 10 0 -2
BITMAP
00
20
50
50
20
54
48
34
00
00
ENDCHAR
STARTCHAR quotesingle
ENCODING 39
SWIDTH 666 0
DWIDTH 6 0
BBX 6 10 0 -2
BITMAP
00
10
10
10
00
00
00
00
00
00
ENDCHAR
STARTCHAR parenleft
ENCODING 40
SWIDTH 666 0
DWIDTH 6 0
BBX 6 10 0 -2
BITMAP
00
08
10
20
20
20
10
08
00
00
ENDCHAR
STARTCHAR parenright
ENCODING 41
SWIDTH 666 0
DWIDTH 6 0
BBX 6 10 0 -2
BITMAP
00
20
10
08
08
08
10
20
00
00
ENDCHAR
STARTCHAR asterisk
ENCODING 42
SWIDTH 666 0
DWIDTH 6 0
BBX 6 10 0 -2
BITMAP
00
00
44
28
7C
28
44
00
00
00
ENDCHAR
STARTCHAR plus
ENCODING 43
SWIDTH 666 0
DWIDTH 6 0
BBX 6 10 0 -2
BITMAP
00
00
10
10
7C
10
10
00
00
00
ENDCHAR
STARTCHAR comma
ENCODING 44
SWIDTH 666 0
DWIDTH 6 0
BBX 6 10 0 -2
BITMAP
00
00
00
00
00
00
18
10
20
00
ENDCHAR
STARTCHAR minus
ENCODING 45
SWIDTH 666 0
DWIDTH 6 0
BBX 6 10 0 -2
BITMAP
00
00
00
00
7C
00
00
00
00
00
ENDCHAR
STARTCHAR period
ENCODING 46
SWIDTH 666 0
DWIDTH 6 0
BBX 6 10 0 -2
BITMAP
00
00
00
00
00
00
10
38
10
00
ENDCHAR
STARTCHAR slash
ENCODING 47
SWIDTH 666 0
DWIDTH 6 0
BBX 6 10 0 -2
BITMAP
00
04
04
08
10
20
40
40
00
00
ENDCHAR
STARTCHAR zero
ENCODING 48
SWIDTH 666 0
DWIDTH 6 0
BBX 6 10 0 -2
BITMAP
00
10
28
44
44
44
28
10
00
00
ENDCHAR
STARTCHAR one
ENCODING 49
SWIDTH 666 0
DWIDTH 6 0
BBX 6 10 0 -2
BITMAP
00
10
30
50
10
10
10
7C
00
00
ENDCHAR
STARTCHAR two
ENCODING 50
SWIDTH 666 0
DWIDTH 6 0
BBX 6 10 0 -2
BITMAP
00
38
44
04
18
20
40
7C
00
00
ENDCHAR
STARTCHAR three
ENCODING 51
SWIDTH 666 0
DWIDTH 6 0
BBX 6 10 0 -2
BITMAP
00
7C
04
08
18
04
44
38
00
00
ENDCHAR
STARTCHAR four
ENCODING 52
SWIDTH 666 0
DWIDTH 6 0
BBX 6 10 0 -2
BITMAP
00
08
18
28
48
7C
08
08
00
00
ENDCHAR
STARTCHAR five
ENCODING 53
SWIDTH 666 0
DWIDTH 6 0
BBX 6 10 0 -2
BITMAP
00
7C
40
58
64
04
44
38
00
00
ENDCHAR
STARTCHAR six
ENCODING 54
SWIDTH 666 0
DWIDTH 6 0
BBX 6 10 0 -2
BITMAP
00
18
20
40
58
64
44
38
00
00
ENDCHAR
STARTCHAR seven
ENCODING 55
SWIDTH 666 0
DWIDTH 6 0
BBX 6 10 0 -2
BITMAP
00
7C
04
08
08
10
20
20
00
00
ENDCHAR
STARTCHAR eight
ENCODING 56
SWIDTH 666 0
DWIDTH 6 0
BBX 6 10 0 -2
BITMAP
00
38
44
44
38
44
44
38
00
00
ENDCHAR
STARTCHAR nine
ENCODING 57
SWIDTH 666 0
DWIDTH 6 0
BBX 6 10 0 -2
BITMAP
00
38
44
4C
34
04
08
30
00
00
ENDCHAR
STARTCHAR colon
ENCODING 58
SWIDTH 666 0
DWIDTH 6 0
BBX 6 10 0 -2
BITMAP
00
00
10
38
10
00
10
38
10
00
ENDCHAR
STARTCHAR semicolon
ENCODING 59
SWIDTH 666 0
DWIDTH 6 0
BBX 6 10 0 -2
BITMAP
00
00
10
38
10
00
18
10
20
00
ENDCHAR
STARTCHAR less
ENCODING 60
SWIDTH 666 0
DWIDTH 6 0
BBX 6 10 0 -2
BITMAP
00
04
08
10
20
10
08
04
00
00
ENDCHAR
STARTCHAR equal
ENCODING 61
SWIDTH 666 0
DWIDTH 6 0
BBX 6 10 0 -2
BITMAP
00
00
00
7C
00
7C
00
00
00
00
ENDCHAR
STARTCHAR greater
ENCODING 62
SWIDTH 666 0
DWIDTH 6 0
BBX 6 10 0 -2
BITMAP
00
40
20
10
08
10
20
40
00
00
ENDCHAR
STARTCHAR question
ENCODING 63
SWIDTH 666 0
DWIDTH 6 0
BBX 6 10 0 -2
BITMAP
00
38
44
08
10
10
00
10
00
00
ENDCHAR
STARTCHAR at
ENCODING 64
SWIDTH 666 0
DWIDTH 6 0
BBX 6 10 0 -2
BITMAP
00
38
44
4C
54
58
40
38
00
00
ENDCHAR
STARTCHAR A
ENCODING 65
SWIDTH 666 0
DWIDTH 6 0
BBX 6 10 0 -2
BITMAP
00
10
28
44
44
7C
44
44
00
00
ENDCHAR
STARTCHAR B
ENCODING 66
SWIDTH 666 0
DWIDTH 6 0
BBX 6 10 0 -2
BITMAP
00
78
24
24
38
24
24
78
00
00
ENDCHAR
STARTCHAR C
ENCODING 67
SWIDTH 666 0
DWIDTH 6 0
BBX 6 10 0 -2
BITMAP
00
38
44
40
40
40
44
38
00
00
ENDCHAR
STARTCHAR D
ENCODING 68
SWIDTH 666 0
DWIDTH 6 0
BBX 6 10 0 -2
BITMAP
00
78
24
24
24
24
24
78
00
00
ENDCHAR
STARTCHAR E
ENCODING 69
SWIDTH 666 0
DWIDTH 6 0
BBX 6 10 0 -2
BITMAP
00
7C
40
40
78
40
40
7C
00
00
ENDCHAR
STARTCHAR F
ENCODING 70
SWIDTH 666 0
DWIDTH 6 0
BBX 6 10 0 -2
BITMAP
00
7C
40
40
78
40
40
40
00
00
ENDCHAR
STARTCHAR G
ENCODING 71
SWIDTH 666 0
DWIDTH 6 0
BBX 6 10 0 -2
BITMAP
00
38
44
40
40
4C
44
38
00
00
ENDCHAR
STARTCHAR H
ENCODING 72
SWIDTH 666 0
DWIDTH 6 0
BBX 6 10 0 -2
BITMAP
00
44
44
44
7C
44
44
44
00
00
ENDCHAR
STARTCHAR I
ENCODING 73
SWIDTH 666 0
DWIDTH 6 0
BBX 6 10 0 -2
BITMAP
00
38
10
10
10
10
10
38
00
00
ENDCHAR
STARTCHAR J
ENCODING 74
SWIDTH 666 0
DWIDTH 6 0
BBX 6 10 0 -2
BITMAP
00
1C
04
04
04
04
44
38
00
00
ENDCHAR
STARTCHAR K
ENCODING 75
SWIDTH 666 0
DWIDTH 6 0
BBX 6 10 0 -2
BITMAP
00
44
48
50
60
50
48
44
00
00
ENDCHAR
STARTCHAR L
ENCODING 76
SWIDTH 666 0
DWIDTH 6 0
BBX 6 10 0 -2
BITMAP
00
40
40
40
40
40
40
7C
00
00
ENDCHAR
STARTCHAR M
ENCODING 77
SWIDTH 666 0
DWIDTH 6 0
BBX 6 10 0 -2
BITMAP
00
44
44
6C
54
44
44
44
00
00
ENDCHAR
STARTCHAR N
ENCODING 78
SWIDTH 666 0
DWIDTH 6 0
BBX 6 10 0 -2
BITMAP
00
44
44
64
54
4C
44
44
00
00
ENDCHAR
STARTCHAR O
ENCODING 79
SWIDTH 666 0
DWIDTH 6 0
BBX 6 10 0 -2
BITMAP
00
38
44
44
44
44
44
38
00
00
ENDCHAR
STARTCHAR P
ENCODING 80
SWIDTH 666 0
DWIDTH 6 0
BBX 6 10 0 -2
BITMAP
00
78
44
44
78
40
40
40
00
00
ENDCHAR
STARTCHAR Q
ENCODING 81
SWIDTH 666 0
DWIDTH 6 0
BBX 6 10 0 -2
BITMAP
00
38
44
44
44
44
54
38
04
00
ENDCHAR
STARTCHAR R
ENCODING 82
SWIDTH 666 0
DWIDTH 6 0
BBX 6 10 0 -2
BITMAP
00
78
44
44
78
50
48
44
00
00
ENDCHAR
STARTCHAR S
ENCODING 83
SWIDTH 666 0
DWIDTH 6 0
BBX 6 10 0 -2
BITMAP
00
38
44
40
38
04
44
38
00
00
ENDCHAR
STARTCHAR T
ENCODING 84
SWIDTH 666 0
DWIDTH 6 0
BBX 6 10 0 -2
BITMAP
00
7C
10
10
10
10
10
10
00
00
ENDCHAR
STARTCHAR U
ENCODING 85
SWIDTH 666 0
DWIDTH 6 0
BBX 6 10 0 -2
BITMAP
00
44
44
44
44
44
44
38
00
00
ENDCHAR
STARTCHAR V
ENCODING 86
SWIDTH 666 0
DWIDTH 6 0
BBX 6 10 0 -2
BITMAP
00
44
44
44
28
28
28
10
00
00
ENDCHAR
STARTCHAR W
ENCODING 87
SWIDTH 666 0
DWIDTH 6 0
BBX 6 10 0 -2
BITMAP
00
44
44
44
54
54
6C
44
00
00
ENDCHAR
STARTCHAR X
ENCODING 88
SWIDTH 666 0
DWIDTH 6 0
BBX 6 10 0 -2
BITMAP
00
44
44
28
10
28
44
44
00
00
ENDCHAR
STARTCHAR Y
ENCODING 89
SWIDTH 666 0
DWIDTH 6 0
BBX 6 10 0 -2
BITMAP
00
44
44
28
10
10
10
10
00
00
ENDCHAR
STARTCHAR Z
ENCODING 90
SWIDTH 666 0
DWIDTH 6 0
BBX 6 10 0 -2
BITMAP
00
7C
04
08
10
20
40
7C
00
00
ENDCHAR
STARTCHAR bracketleft
ENCODING 91
SWIDTH 666 0
DWIDTH 6 0
BBX 6 10 0 -2
BITMAP
00
38
20
20
20
20
20
38
00
00
ENDCHAR
STARTCHAR backslash
ENCODING 92
SWIDTH 666 0
DWIDTH 6 0
BBX 6 10 0 -2
BITMAP
00
40
40
20
10
08
04
04
00
00
ENDCHAR
STARTCHAR bracketright
ENCODING 93
SWIDTH 666 0
DWIDTH 6 0
BBX 6 10 0 -2
BITMAP
00
38
08
08
08
08
08
38
00
00
ENDCHAR
STARTCHAR asciicircum
ENCODING 94
SWIDTH 666 0
DWIDTH 6 0
BBX 6 10 0 -2
BITMAP
00
10
28
44
00
00
00
00
00
00
ENDCHAR
STARTCHAR underscore
ENCODING 95
SWIDTH 666 0
DWIDTH 6 0
BBX 6 10 0 -2
BITMAP
00
00
00
00
00
00
00
00
7C
00
ENDCHAR
STARTCHAR grave
ENCODING 96
SWIDTH 666 0
DWIDTH 6 0
BBX 6 10 0 -2
BITMAP
20
10
00
00
00
00
00
00
00
00
ENDCHAR
STARTCHAR a
ENCODING 97
SWIDTH 666 0
DWIDTH 6 0
BBX 6 10 0 -2
BITMAP
00
00
00
38
04
3C
44
3C
00
00
ENDCHAR
STARTCHAR b
ENCODING 98
SWIDTH 666 0
DWIDTH 6 0
BBX 6 10 0 -2
BITMAP
00
40
40
58
64
44
64
58
00
00
ENDCHAR
STARTCHAR c
ENCODING 99
SWIDTH 666 0
DWIDTH 6 0
BBX 6 10 0 -2
BITMAP
00
00
00
38
44
40
44
38
00
00
ENDCHAR
STARTCHAR d
ENCODING 100
SWIDTH 666 0
DWIDTH 6 0
BBX 6 10 0 -2
BITMAP
00
04
04
34
4C
44
4C
34
00
00
ENDCHAR
STARTCHAR e
ENCODING 101
SWIDTH 666 0
DWIDTH 6 0
BBX 6 10 0 -2
BITMAP
00
00
00
38
44
7C
40
38
00
00
ENDCHAR
STARTCHAR f
ENCODING 102
SWIDTH 666 0
DWIDTH 6 0
BBX 6 10 0 -2
BITMAP
00
18
24
20
78
20
20
20
00
00
ENDCHAR
STARTCHAR g
ENCODING 103
SWIDTH 666 0
DWIDTH 6 0
BBX 6 10 0 -2
BITMAP
00
00
00
34
48
30
40
38
44
38
ENDCHAR
STARTCHAR h
ENCODING 104
SWIDTH 666 0
DWIDTH 6 0
BBX 6 10 0 -2
BITMAP
00
40
40
58
64
44
44
44
00
00
ENDCHAR
STARTCHAR i
ENCODING 105
SWIDTH 666 0
DWIDTH 6 0
BBX 6 10 0 -2
BITMAP
00
10
00
30
10
10
10
38
00
00
ENDCHAR
STARTCHAR j
ENCODING 106
SWIDTH 666 0
DWIDTH 6 0
BBX 6 10 0 -2
BITMAP
00
08
00
18
08
08
08
48
48
30
ENDCHAR
STARTCHAR k
ENCODING 107
SWIDTH 666 0
DWIDTH 6 0
BBX 6 10 0 -2
BITMAP
00
40
40
44
48
70
48
44
00
00
ENDCHAR
STARTCHAR l
ENCODING 108
SWIDTH 666 0
DWIDTH 6 0
BBX 6 10 0 -2
BITMAP
00
30
10
10
10
10
10
38
00
00
ENDCHAR
STARTCHAR m
ENCODING 109
SWIDTH 666 0
DWIDTH 6 0
BBX 6 10 0 -2
BITMAP
00
00
00
68
54
54
54
44
00
00
ENDCHAR
STARTCHAR n
ENCODING 110
SWIDTH 666 0
DWIDTH 6 0
BBX 6 10 0 -2
BITMAP
00
00
00
58
64
44
44
44
00
00
ENDCHAR
STARTCHAR o
ENCODING 111
SWIDTH 666 0
DWIDTH 6 0
BBX 6 10 0 -2
BITMAP
00
00
00
38
44
44
44
38
00
00
ENDCHAR
STARTCHAR p
ENCODING 112
SWIDTH 666 0
DWIDTH 6 0
BBX 6 10 0 -2
BITMAP
00
00
00
58
64
64
58
40
40
40
ENDCHAR
STARTCHAR q
ENCODING 113
SWIDTH 666 0
DWIDTH 6 0
BBX 6 10 0 -2
BITMAP
00
00
00
34
4C
4C
34
04
04
04
ENDCHAR
STARTCHAR r
ENCODING 114
SWIDTH 666 0
DWIDTH 6 0
BBX 6 10 0 -2
BITMAP
00
00
00
58
64
40
40
40
00
00
ENDCHAR
STARTCHAR s
ENCODING 115
SWIDTH 666 0
DWIDTH 6 0
BBX 6 10 0 -2
BITMAP
00
00
00
38
40
38
04
78
00
00
ENDCHAR
STARTCHAR t
ENCODING 116
SWIDTH 666 0
DWIDTH 6 0
BBX 6 10 0 -2
BITMAP
00
20
20
78
20
20
24
18
00
00
ENDCHAR
STARTCHAR u
ENCODING 117
SWIDTH 666 0
DWIDTH 6 0
BBX 6 10 0 -2
BITMAP
00
00
00
44
44
44
4C
34
00
00
ENDCHAR
STARTCHAR v
ENCODING 118
SWIDTH 666 0
DWIDTH 6 0
BBX 6 10 0 -2
BITMAP
00
00
00
44
44
28
28
10
00
00
ENDCHAR
STARTCHAR w
ENCODING 119
SWIDTH 666 0
DWIDTH 6 0
BBX 6 10 0 -2
BITMAP
00
00
00
44
44
54
54
28
00
00
ENDCHAR
STARTCHAR x
ENCODING 120
SWIDTH 666 0
DWIDTH 6 0
BBX 6 10 0 -2
BITMAP
00
00
00
44
28
10
28
44
00
00
ENDCHAR
STARTCHAR y
ENCODING 121
SWIDTH 666 0
DWIDTH 6 0
BBX 6 10 0 -2
BITMAP
00
00
00
44
44
4C
34
04
44
38
ENDCHAR
STARTCHAR z
ENCODING 122
SWIDTH 666 0
DWIDTH 6 0
BBX 6 10 0 -2
BITMAP
00
00
00
7C
08
10
20
7C
00
00
ENDCHAR
STARTCHAR braceleft
ENCODING 123
SWIDTH 666 0
DWIDTH 6 0
BBX 6 10 0 -2
BITMAP
00
0C
10
08
30
08
10
0C
00
00
ENDCHAR
STARTCHAR bar
ENCODING 124
SWIDTH 666 0
DWIDTH 6 0
BBX 6 10 0 -2
BITMAP
00
10
10
10
10
10
10
10
00
00
ENDCHAR
STARTCHAR braceright
ENCODING 125
SWIDTH 666 0
DWIDTH 6 0
BBX 6 10 0 -2
BITMAP
00
60
10
20
18
20
10
60
00
00
ENDCHAR
STARTCHAR asciitilde
ENCODING 126
SWIDTH 666 0
DWIDTH 6 0
BBX 6 10 0 -2
BITMAP
00
24
54
48
00
00
00
00
00
00
ENDCHAR
STARTCHAR delete
ENCODING 127
SWIDTH 666 0
DWIDTH 6 0
BBX 6 10 0 -2
BITMAP
00
00
00
00
00
00
00
00
00
00
ENDCHAR
STARTCHAR afii10051
ENCODING 128
SWIDTH 666 0
DWIDTH 6 0
BBX 6 10 0 -2
BITMAP
00
F0
40
40
78
44
44
58
00
00
ENDCHAR
STARTCHAR afii10052
ENCODING 129
SWIDTH 666 0
DWIDTH 6 0
BBX 6 10 0 -2
BITMAP
08
10
7C
40
40
40
40
40
00
00
ENDCHAR
STARTCHAR quotesinglbase
ENCODING 130
SWIDTH 666 0
DWIDTH 6 0
BBX 6 10 0 -2
BITMAP
00
00
00
00
00
00
18
10
20
00
ENDCHAR
STARTCHAR afii10100
ENCODING 131
SWIDTH 666 0
DWIDTH 6 0
BBX 6 10 0 -2
BITMAP
00
08
10
78
40
40
40
40
00
00
ENDCHAR
STARTCHAR quotedblbase
ENCODING 132
SWIDTH 666 0
DWIDTH 6 0
BBX 6 10 0 -2
BITMAP
00
00
00
00
00
00
6C
48
90
00
ENDCHAR
STARTCHAR ellipsis
ENCODING 133
SWIDTH 666 0
DWIDTH 6 0
BBX 6 10 0 -2
BITMAP
00
00
00
00
00
00
54
54
00
00
ENDCHAR
STARTCHAR dagger
ENCODING 134
SWIDTH 666 0
DWIDTH 6 0
BBX 6 10 0 -2
BITMAP
00
10
10
7C
10
10
10
10
00
00
ENDCHAR
STARTCHAR daggerdbl
ENCODING 135
SWIDTH 666 0
DWIDTH 6 0
BBX 6 10 0 -2
BITMAP
00
10
10
7C
10
7C
10
10
00
00
ENDCHAR
STARTCHAR Euro
ENCODING 136
SWIDTH 666 0
DWIDTH 6 0
BBX 6 10 0 -2
BITMAP
00
38
44
F0
40
F0
44
38
00
00
ENDCHAR
STARTCHAR perthousand
ENCODING 137
SWIDTH 666 0
DWIDTH 6 0
BBX 6 10 0 -2
BITMAP
00
40
44
08
10
20
54
14
00
00
ENDCHAR
STARTCHAR afii10058
ENCODING 138
SWIDTH 666 0
DWIDTH 6 0
BBX 6 10 0 -2
BITMAP
00
30
50
50
58
54
54
98
00
00
ENDCHAR
STARTCHAR guilsinglleft
ENCODING 139
SWIDTH 666 0
DWIDTH 6 0
BBX 6 10 0 -2
BITMAP
00
00
00
08
10
20
10
08
00
00
ENDCHAR
STARTCHAR afii10059
ENCODING 140
SWIDTH 666 0
DWIDTH 6 0
BBX 6 10 0 -2
BITMAP
00
50
50
50
78
54
54
58
00
00
ENDCHAR
STARTCHAR afii10061
ENCODING 141
SWIDTH 666 0
DWIDTH 6 0
BBX 6 10 0 -2
BITMAP
08
10
44
48
70
50
48
44
00
00
ENDCHAR
STARTCHAR afii10060
ENCODING 142
SWIDTH 666 0
DWIDTH 6 0
BBX 6 10 0 -2
BITMAP
00
F0
40
40
78
44
44
44
00
00
ENDCHAR
STARTCHAR afii10145
ENCODING 143
SWIDTH 666 0
DWIDTH 6 0
BBX 6 10 0 -2
BITMAP
00
44
44
44
44
44
44
7C
10
00
ENDCHAR
STARTCHAR afii10099
ENCODING 144
SWIDTH 666 0
DWIDTH 6 0
BBX 6 10 0 -2
BITMAP
00
40
E0
58
64
44
44
44
04
18
ENDCHAR
STARTCHAR quoteleft
ENCODING 145
SWIDTH 666 0
DWIDTH 6 0
BBX 6 10 0 -2
BITMAP
00
30
10
08
00
00
00
00
00
00
ENDCHAR
STARTCHAR quoteright
ENCODING 146
SWIDTH 666 0
DWIDTH 6 0
BBX 6 10 0 -2
BITMAP
00
18
10
20
00
00
00
00
00
00
ENDCHAR
STARTCHAR quotedblleft
ENCODING 147
SWIDTH 666 0
DWIDTH 6 0
BBX 6 10 0 -2
BITMAP
24
48
D8
00
00
00
00
00
00
00
ENDCHAR
STARTCHAR quotedblright
ENCODING 148
SWIDTH 666 0
DWIDTH 6 0
BBX 6 10 0 -2
BITMAP
6C
48
90
00
00
00
00
00
00
00
ENDCHAR
STARTCHAR bullet
ENCODING 149
SWIDTH 666 0
DWIDTH 6 0
BBX 6 10 0 -2
BITMAP
00
00
00
38
38
38
00
00
00
00
ENDCHAR
STARTCHAR endash
ENCODING 150
SWIDTH 666 0
DWIDTH 6 0
BBX 6 10 0 -2
BITMAP
00
00
00
00
7C
00
00
00
00
00
ENDCHAR
STARTCHAR emdash
ENCODING 151
SWIDTH 666 0
DWIDTH 6 0
BBX 6 10 0 -2
BITMAP
00
00
00
00
FC
00
00
00
00
00
ENDCHAR
STARTCHAR trademark
ENCODING 153
SWIDTH 666 0
DWIDTH 6 0
BBX 6 10 0 -2
BITMAP
F4
5C
5C
54
54
00
00
00
00
00
ENDCHAR
STARTCHAR afii10106
ENCODING 154
SWIDTH 666 0
DWIDTH 6 0
BBX 6 10 0 -2
BITMAP
00
00
00
30
50
58
54
98
00
00
ENDCHAR
STARTCHAR guilsinglright
ENCODING 155
SWIDTH 666 0
DWIDTH 6 0
BBX 6 10 0 -2
BITMAP
00
00
00
20
10
08
10
20
00
00
ENDCHAR
STARTCHAR afii10107
ENCODING 156
SWIDTH 666 0
DWIDTH 6 0
BBX 6 10 0 -2
BITMAP
00
00
00
50
50
78
54
58
00
00
ENDCHAR
STARTCHAR afii10109
ENCODING 157
SWIDTH 666 0
DWIDTH 6 0
BBX 6 10 0 -2
BITMAP
00
08
10
44
48
70
48
44
00
00
ENDCHAR
STARTCHAR afii10108
ENCODING 158
SWIDTH 666 0
DWIDTH 6 0
BBX 6 10 0 -2
BITMAP
00
40
E0
58
64
44
44
44
00
00
ENDCHAR
STARTCHAR afii10193
ENCODING 159
SWIDTH 666 0
DWIDTH 6 0
BBX 6 10 0 -2
BITMAP
00
00
00
44
44
44
44
7C
10
00
ENDCHAR
STARTCHAR space
ENCODING 160
SWIDTH 666 0
DWIDTH 6 0
BBX 6 10 0 -2
BITMAP
00
00
00
00
00
00
00
00
00
00
ENDCHAR
STARTCHAR afii10062
ENCODING 161
SWIDTH 666 0
DWIDTH 6 0
BBX 6 10 0 -2
BITMAP
38
44
44
44
3C
04
44
38
00
00
ENDCHAR
STARTCHAR afii10110
ENCODING 162
SWIDTH 666 0
DWIDTH 6 0
BBX 6 10 0 -2
BITMAP
00
38
00
44
44
4C
34
04
44
38
ENDCHAR
STARTCHAR afii10057
ENCODING 163
SWIDTH 666 0
DWIDTH 6 0
BBX 6 10 0 -2
BITMAP
00
1C
04
04
04
04
44
38
00
00
ENDCHAR
STARTCHAR currency
ENCODING 164
SWIDTH 666 0
DWIDTH 6 0
BBX 6 10 0 -2
BITMAP
00
00
00
44
38
28
38
44
00
00
ENDCHAR
STARTCHAR afii10050
ENCODING 165
SWIDTH 666 0
DWIDTH 6 0
BBX 6 10 0 -2
BITMAP
04
7C
40
40
40
40
40
40
00
00
ENDCHAR
STARTCHAR brokenbar
ENCODING 166
SWIDTH 666 0
DWIDTH 6 0
BBX 6 10 0 -2
BITMAP
00
10
10
10
00
10
10
10
00
00
ENDCHAR
STARTCHAR section
ENCODING 167
SWIDTH 666 0
DWIDTH 6 0
BBX 6 10 0 -2
BITMAP
00
38
40
70
48
24
1C
04
38
00
ENDCHAR
STARTCHAR afii10023
ENCODING 168
SWIDTH 666 0
DWIDTH 6 0
BBX 6 10 0 -2
BITMAP
28
7c
40
40
78
40
40
7c
00
00
ENDCHAR
STARTCHAR copyright
ENCODING 169
SWIDTH 666 0
DWIDTH 6 0
BBX 6 10 0 -2
BITMAP
00
38
44
54
64
54
44
38
00
00
ENDCHAR
STARTCHAR afii10053
ENCODING 170
SWIDTH 666 0
DWIDTH 6 0
BBX 6 10 0 -2
BITMAP
00
38
44
40
70
40
44
38
00
00
ENDCHAR
STARTCHAR guillemotleft
ENCODING 171
SWIDTH 666 0
DWIDTH 6 0
BBX 6 10 0 -2
BITMAP
00
00
00
24
48
90
48
24
00
00
ENDCHAR
STARTCHAR logicalnot
ENCODING 172
SWIDTH 666 0
DWIDTH 6 0
BBX 6 10 0 -2
BITMAP
00
00
00
00
78
08
00
00
00
00
ENDCHAR
STARTCHAR hyphen
ENCODING 173
SWIDTH 666 0
DWIDTH 6 0
BBX 6 10 0 -2
BITMAP
00
00
00
00
7C
00
00
00
00
00
ENDCHAR
STARTCHAR registered
ENCODING 174
SWIDTH 666 0
DWIDTH 6 0
BBX 6 10 0 -2
BITMAP
00
38
44
74
64
64
44
38
00
00
ENDCHAR
STARTCHAR afii10056
ENCODING 175
SWIDTH 666 0
DWIDTH 6 0
BBX 6 10 0 -2
BITMAP
28
38
10
10
10
10
10
38
00
00
ENDCHAR
STARTCHAR degree
ENCODING 176
SWIDTH 666 0
DWIDTH 6 0
BBX 6 10 0 -2
BITMAP
00
10
28
10
00
00
00
00
00
00
ENDCHAR
STARTCHAR plusminus
ENCODING 177
SWIDTH 666 0
DWIDTH 6 0
BBX 6 10 0 -2
BITMAP
00
00
10
10
7C
10
10
7C
00
00
ENDCHAR
STARTCHAR afii10055
ENCODING 178
SWIDTH 666 0
DWIDTH 6 0
BBX 6 10 0 -2
BITMAP
00
38
10
10
10
10
10
38
00
00
ENDCHAR
STARTCHAR afii10103
ENCODING 179
SWIDTH 666 0
DWIDTH 6 0
BBX 6 10 0 -2
BITMAP
00
10
00
30
10
10
10
38
00
00
ENDCHAR
STARTCHAR afii10098
ENCODING 180
SWIDTH 666 0
DWIDTH 6 0
BBX 6 10 0 -2
BITMAP
00
00
08
78
40
40
40
40
00
00
ENDCHAR
STARTCHAR mu
ENCODING 181
SWIDTH 666 0
DWIDTH 6 0
BBX 6 10 0 -2
BITMAP
00
00
00
44
44
44
64
58
40
00
ENDCHAR
STARTCHAR paragraph
ENCODING 182
SWIDTH 666 0
DWIDTH 6 0
BBX 6 10 0 -2
BITMAP
00
3C
74
74
34
14
14
14
00
00
ENDCHAR
STARTCHAR periodcentered
ENCODING 183
SWIDTH 666 0
DWIDTH 6 0
BBX 6 10 0 -2
BITMAP
00
00
00
00
10
00
00
00
00
00
ENDCHAR
STARTCHAR afii10071
ENCODING 184
SWIDTH 666 0
DWIDTH 6 0
BBX 6 10 0 -2
BITMAP
00
28
00
38
44
7c
40
38
00
00
ENDCHAR
STARTCHAR afii61352
ENCODING 185
SWIDTH 666 0
DWIDTH 6 0
BBX 6 10 0 -2
BITMAP
00
90
90
DC
BC
90
9C
90
00
00
ENDCHAR
STARTCHAR afii10101
ENCODING 186
SWIDTH 666 0
DWIDTH 6 0
BBX 6 10 0 -2
BITMAP
00
00
00
38
44
70
44
38
00
00
ENDCHAR
STARTCHAR guillemotright
ENCODING 187
SWIDTH 666 0
DWIDTH 6 0
BBX 6 10 0 -2
BITMAP
00
00
00
90
48
24
48
90
00
00
ENDCHAR
STARTCHAR afii10105
ENCODING 188
SWIDTH 666 0
DWIDTH 6 0
BBX 6 10 0 -2
BITMAP
00
08
00
18
08
08
08
48
48
30
ENDCHAR
STARTCHAR afii10054
ENCODING 189
SWIDTH 666 0
DWIDTH 6 0
BBX 6 10 0 -2
BITMAP
00
38
44
40
38
04
44
38
00
00
ENDCHAR
STARTCHAR afii10102
ENCODING 190
SWIDTH 666 0
DWIDTH 6 0
BBX 6 10 0 -2
BITMAP
00
00
00
38
40
38
04
78
00
00
ENDCHAR
STARTCHAR afii10104
ENCODING 191
SWIDTH 666 0
DWIDTH 6 0
BBX 6 10 0 -2
BITMAP
00
28
00
30
10
10
10
38
00
00
ENDCHAR
STARTCHAR afii10017
ENCODING 192
SWIDTH 666 0
DWIDTH 6 0
BBX 6 10 0 -2
BITMAP
00
10
28
44
44
7C
44
44
00
00
ENDCHAR
STARTCHAR afii10018
ENCODING 193
SWIDTH 666 0
DWIDTH 6 0
BBX 6 10 0 -2
BITMAP
00
7C
40
40
78
44
44
78
00
00
ENDCHAR
STARTCHAR afii10019
ENCODING 194
SWIDTH 666 0
DWIDTH 6 0
BBX 6 10 0 -2
BITMAP
00
78
24
24
38
24
24
78
00
00
ENDCHAR
STARTCHAR afii10020
ENCODING 195
SWIDTH 666 0
DWIDTH 6 0
BBX 6 10 0 -2
BITMAP
00
7C
40
40
40
40
40
40
00
00
ENDCHAR
STARTCHAR afii10021
ENCODING 196
SWIDTH 666 0
DWIDTH 6 0
BBX 6 10 0 -2
BITMAP
00
18
28
28
28
28
28
7C
44
00
ENDCHAR
STARTCHAR afii10022
ENCODING 197
SWIDTH 666 0
DWIDTH 6 0
BBX 6 10 0 -2
BITMAP
00
7C
40
40
78
40
40
7C
00
00
ENDCHAR
STARTCHAR afii10024
ENCODING 198
SWIDTH 666 0
DWIDTH 6 0
BBX 6 10 0 -2
BITMAP
00
54
54
38
10
38
54
54
00
00
ENDCHAR
STARTCHAR afii10025
ENCODING 199
SWIDTH 666 0
DWIDTH 6 0
BBX 6 10 0 -2
BITMAP
00
38
44
04
18
04
44
38
00
00
ENDCHAR
STARTCHAR afii10026
ENCODING 200
SWIDTH 666 0
DWIDTH 6 0
BBX 6 10 0 -2
BITMAP
00
44
44
4C
54
64
44
44
00
00
ENDCHAR
STARTCHAR afii10027
ENCODING 201
SWIDTH 666 0
DWIDTH 6 0
BBX 6 10 0 -2
BITMAP
38
44
44
4C
54
64
44
44
00
00
ENDCHAR
STARTCHAR afii10028
ENCODING 202
SWIDTH 666 0
DWIDTH 6 0
BBX 6 10 0 -2
BITMAP
00
44
48
50
60
50
48
44
00
00
ENDCHAR
STARTCHAR afii10029
ENCODING 203
SWIDTH 666 0
DWIDTH 6 0
BBX 6 10 0 -2
BITMAP
00
1C
24
24
24
24
24
44
00
00
ENDCHAR
STARTCHAR afii10030
ENCODING 204
SWIDTH 666 0
DWIDTH 6 0
BBX 6 10 0 -2
BITMAP
00
44
44
6C
54
44
44
44
00
00
ENDCHAR
STARTCHAR afii10031
ENCODING 205
SWIDTH 666 0
DWIDTH 6 0
BBX 6 10 0 -2
BITMAP
00
44
44
44
7C
44
44
44
00
00
ENDCHAR
STARTCHAR afii10032
ENCODING 206
SWIDTH 666 0
DWIDTH 6 0
BBX 6 10 0 -2
BITMAP
00
38
44
44
44
44
44
38
00
00
ENDCHAR
STARTCHAR afii10033
ENCODING 207
SWIDTH 666 0
DWIDTH 6 0
BBX 6 10 0 -2
BITMAP
00
7C
44
44
44
44
44
44
00
00
ENDCHAR
STARTCHAR afii10034
ENCODING 208
SWIDTH 666 0
DWIDTH 6 0
BBX 6 10 0 -2
BITMAP
00
78
44
44
78
40
40
40
00
00
ENDCHAR
STARTCHAR afii10035
ENCODING 209
SWIDTH 666 0
DWIDTH 6 0
BBX 6 10 0 -2
BITMAP
00
38
44
40
40
40
44
38
00
00
ENDCHAR
STARTCHAR afii10036
ENCODING 210
SWIDTH 666 0
DWIDTH 6 0
BBX 6 10 0 -2
BITMAP
00
7C
10
10
10
10
10
10
00
00
ENDCHAR
STARTCHAR afii10037
ENCODING 211
SWIDTH 666 0
DWIDTH 6 0
BBX 6 10 0 -2
BITMAP
00
44
44
44
3C
04
44
38
00
00
ENDCHAR
STARTCHAR afii10038
ENCODING 212
SWIDTH 666 0
DWIDTH 6 0
BBX 6 10 0 -2
BITMAP
00
10
38
54
54
54
38
10
00
00
ENDCHAR
STARTCHAR afii10039
ENCODING 213
SWIDTH 666 0
DWIDTH 6 0
BBX 6 10 0 -2
BITMAP
00
44
44
28
10
28
44
44
00
00
ENDCHAR
STARTCHAR afii10040
ENCODING 214
SWIDTH 666 0
DWIDTH 6 0
BBX 6 10 0 -2
BITMAP
00
48
48
48
48
48
48
7C
04
00
ENDCHAR
STARTCHAR afii10041
ENCODING 215
SWIDTH 666 0
DWIDTH 6 0
BBX 6 10 0 -2
BITMAP
00
44
44
44
3C
04
04
04
00
00
ENDCHAR
STARTCHAR afii10042
ENCODING 216
SWIDTH 666 0
DWIDTH 6 0
BBX 6 10 0 -2
BITMAP
00
44
54
54
54
54
54
7C
00
00
ENDCHAR
STARTCHAR afii10043
ENCODING 217
SWIDTH 666 0
DWIDTH 6 0
BBX 6 10 0 -2
BITMAP
00
44
54
54
54
54
54
7C
04
00
ENDCHAR
STARTCHAR afii10044
ENCODING 218
SWIDTH 666 0
DWIDTH 6 0
BBX 6 10 0 -2
BITMAP
00
60
20
20
38
24
24
38
00
00
ENDCHAR
STARTCHAR afii10045
ENCODING 219
SWIDTH 666 0
DWIDTH 6 0
BBX 6 10 0 -2
BITMAP
00
44
44
44
64
54
54
64
00
00
ENDCHAR
STARTCHAR afii10046
ENCODING 220
SWIDTH 666 0
DWIDTH 6 0
BBX 6 10 0 -2
BITMAP
00
40
40
40
78
44
44
78
00
00
ENDCHAR
STARTCHAR afii10047
ENCODING 221
SWIDTH 666 0
DWIDTH 6 0
BBX 6 10 0 -2
BITMAP
00
38
44
04
1C
04
44
38
00
00
ENDCHAR
STARTCHAR afii10048
ENCODING 222
SWIDTH 666 0
DWIDTH 6 0
BBX 6 10 0 -2
BITMAP
00
48
54
54
74
54
54
48
00
00
ENDCHAR
STARTCHAR afii10049
ENCODING 223
SWIDTH 666 0
DWIDTH 6 0
BBX 6 10 0 -2
BITMAP
00
3C
44
44
3C
14
24
44
00
00
ENDCHAR
STARTCHAR afii10065
ENCODING 224
SWIDTH 666 0
DWIDTH 6 0
BBX 6 10 0 -2
BITMAP
00
00
00
38
04
3C
44
3C
00
00
ENDCHAR
STARTCHAR afii10066
ENCODING 225
SWIDTH 666 0
DWIDTH 6 0
BBX 6 10 0 -2
BITMAP
00
04
38
40
58
64
44
38
00
00
ENDCHAR
STARTCHAR afii10067
ENCODING 226
SWIDTH 666 0
DWIDTH 6 0
BBX 6 10 0 -2
BITMAP
00
00
00
78
44
78
44
78
00
00
ENDCHAR
STARTCHAR afii10068
ENCODING 227
SWIDTH 666 0
DWIDTH 6 0
BBX 6 10 0 -2
BITMAP
00
00
00
78
40
40
40
40
00
00
ENDCHAR
STARTCHAR afii10069
ENCODING 228
SWIDTH 666 0
DWIDTH 6 0
BBX 6 10 0 -2
BITMAP
00
00
00
18
28
28
28
7C
44
00
ENDCHAR
STARTCHAR afii10070
ENCODING 229
SWIDTH 666 0
DWIDTH 6 0
BBX 6 10 0 -2
BITMAP
00
00
00
38
44
7C
40
38
00
00
ENDCHAR
STARTCHAR afii10072
ENCODING 230
SWIDTH 666 0
DWIDTH 6 0
BBX 6 10 0 -2
BITMAP
00
00
00
54
38
10
38
54
00
00
ENDCHAR
STARTCHAR afii10073
ENCODING 231
SWIDTH 666 0
DWIDTH 6 0
BBX 6 10 0 -2
BITMAP
00
00
00
78
04
38
04
78
00
00
ENDCHAR
STARTCHAR afii10074
ENCODING 232
SWIDTH 666 0
DWIDTH 6 0
BBX 6 10 0 -2
BITMAP
00
00
00
44
4C
54
64
44
00
00
ENDCHAR
STARTCHAR afii10075
ENCODING 233
SWIDTH 666 0
DWIDTH 6 0
BBX 6 10 0 -2
BITMAP
00
38
00
44
4C
54
64
44
00
00
ENDCHAR
STARTCHAR afii10076
ENCODING 234
SWIDTH 666 0
DWIDTH 6 0
BBX 6 10 0 -2
BITMAP
00
00
00
44
48
70
48
44
00
00
ENDCHAR
STARTCHAR afii10077
ENCODING 235
SWIDTH 666 0
DWIDTH 6 0
BBX 6 10 0 -2
BITMAP
00
00
00
1C
24
24
24
44
00
00
ENDCHAR
STARTCHAR afii10078
ENCODING 236
SWIDTH 666 0
DWIDTH 6 0
BBX 6 10 0 -2
BITMAP
00
00
00
44
6C
54
44
44
00
00
ENDCHAR
STARTCHAR afii10079
ENCODING 237
SWIDTH 666 0
DWIDTH 6 0
BBX 6 10 0 -2
BITMAP
00
00
00
44
44
7C
44
44
00
00
ENDCHAR
STARTCHAR afii10080
ENCODING 238
SWIDTH 666 0
DWIDTH 6 0
BBX 6 10 0 -2
BITMAP
00
00
00
38
44
44
44
38
00
00
ENDCHAR
STARTCHAR afii10081
ENCODING 239
SWIDTH 666 0
DWIDTH 6 0
BBX 6 10 0 -2
BITMAP
00
00
00
7C
44
44
44
44
00
00
ENDCHAR
STARTCHAR afii10082
ENCODING 240
SWIDTH 666 0
DWIDTH 6 0
BBX 6 10 0 -2
BITMAP
00
00
00
58
64
64
58
40
40
40
ENDCHAR
STARTCHAR afii10083
ENCODING 241
SWIDTH 666 0
DWIDTH 6 0
BBX 6 10 0 -2
BITMAP
00
00
00
38
44
40
44
38
00
00
ENDCHAR
STARTCHAR afii10084
ENCODING 242
SWIDTH 666 0
DWIDTH 6 0
BBX 6 10 0 -2
BITMAP
00
00
00
7C
10
10
10
10
00
00
ENDCHAR
STARTCHAR afii10085
ENCODING 243
SWIDTH 666 0
DWIDTH 6 0
BBX 6 10 0 -2
BITMAP
00
00
00
44
44
4C
34
04
44
38
ENDCHAR
STARTCHAR afii10086
ENCODING 244
SWIDTH 666 0
DWIDTH 6 0
BBX 6 10 0 -2
BITMAP
00
00
10
38
54
54
54
38
10
10
ENDCHAR
STARTCHAR afii10087
ENCODING 245
SWIDTH 666 0
DWIDTH 6 0
BBX 6 10 0 -2
BITMAP
00
00
00
44
28
10
28
44
00
00
ENDCHAR
STARTCHAR afii10088
ENCODING 246
SWIDTH 666 0
DWIDTH 6 0
BBX 6 10 0 -2
BITMAP
00
00
00
48
48
48
48
7C
04
00
ENDCHAR
STARTCHAR afii10089
ENCODING 247
SWIDTH 666 0
DWIDTH 6 0
BBX 6 10 0 -2
BITMAP
00
00
00
44
44
3C
04
04
00
00
ENDCHAR
STARTCHAR afii10090
ENCODING 248
SWIDTH 666 0
DWIDTH 6 0
BBX 6 10 0 -2
BITMAP
00
00
00
44
54
54
54
7C
00
00
ENDCHAR
STARTCHAR afii10091
ENCODING 249
SWIDTH 666 0
DWIDTH 6 0
BBX 6 10 0 -2
BITMAP
00
00
00
44
54
54
54
7C
04
00
ENDCHAR
STARTCHAR afii10092
ENCODING 250
SWIDTH 666 0
DWIDTH 6 0
BBX 6 10 0 -2
BITMAP
00
00
00
60
20
38
24
38
00
00
ENDCHAR
STARTCHAR afii10093
ENCODING 251
SWIDTH 666 0
DWIDTH 6 0
BBX 6 10 0 -2
BITMAP
00
00
00
44
44
64
54
64
00
00
ENDCHAR
STARTCHAR afii10094
ENCODING 252
SWIDTH 666 0
DWIDTH 6 0
BBX 6 10 0 -2
BITMAP
00
00
00
40
40
78
44
78
00
00
ENDCHAR
STARTCHAR afii10095
ENCODING 253
SWIDTH 666 0
DWIDTH 6 0
BBX 6 10 0 -2
BITMAP
00
00
00
38
44
1C
44
38
00
00
ENDCHAR
STARTCHAR afii10096
ENCODING 254
SWIDTH 666 0
DWIDTH 6 0
BBX 6 10 0 -2
BITMAP
00
00
00
48
54
74
54
48
00
00
ENDCHAR
STARTCHAR afii10097
ENCODING 255
SWIDTH 666 0
DWIDTH 6 0
BBX 6 10 0 -2
BITMAP
00
00
00
3C
44
3C
24
44
00
00
ENDCHAR
STARTCHAR tilde
ENCODING -1
SWIDTH 666 0
DWIDTH 6 0
BBX 6 10 0 -2
BITMAP
24
58
00
00
00
00
00
00
00
00
ENDCHAR
STARTCHAR florin
ENCODING -1
SWIDTH 666 0
DWIDTH 6 0
BBX 6 10 0 -2
BITMAP
00
0C
10
10
78
20
20
20
20
40
ENDCHAR
STARTCHAR circumflex
ENCODING -1
SWIDTH 666 0
DWIDTH 6 0
BBX 6 10 0 -2
BITMAP
00
10
28
00
00
00
00
00
00
00
ENDCHAR
STARTCHAR OE
ENCODING -1
SWIDTH 666 0
DWIDTH 6 0
BBX 6 10 0 -2
BITMAP
00
7C
90
90
9C
90
90
7C
00
00
ENDCHAR
STARTCHAR oe
ENCODING -1
SWIDTH 666 0
DWIDTH 6 0
BBX 6 10 0 -2
BITMAP
00
00
00
78
94
9C
90
7C
00
00
ENDCHAR
STARTCHAR Scaron
ENCODING -1
SWIDTH 666 0
DWIDTH 6 0
BBX 6 10 0 -2
BITMAP
28
10
38
40
38
04
44
38
00
00
ENDCHAR
STARTCHAR scaron
ENCODING -1
SWIDTH 666 0
DWIDTH 6 0
BBX 6 10 0 -2
BITMAP
00
28
10
38
40
38
04
78
00
00
ENDCHAR
STARTCHAR Zcaron
ENCODING -1
SWIDTH 666 0
DWIDTH 6 0
BBX 6 10 0 -2
BITMAP
28
10
7C
08
10
20
40
7C
00
00
ENDCHAR
STARTCHAR zcaron
ENCODING -1
SWIDTH 666 0
DWIDTH 6 0
BBX 6 10 0 -2
BITMAP
00
28
10
7C
08
10
20
7C
00
00
ENDCHAR
STARTCHAR Ydieresis
ENCODING -1
SWIDTH 666 0
DWIDTH 6 0
BBX 6 10 0 -2
BITMAP
28
44
44
28
10
10
10
10
00
00
ENDCHAR
ENDFONT
